<svg width="13" height="13" viewBox="0 0 13 13" fill="none" xmlns="http://www.w3.org/2000/svg">
<g clip-path="url(#clip0)">
<path d="M6.5 7.95904L1.38077 2.83971C1.29395 2.75293 1.19403 2.70949 1.08116 2.70949C0.968284 2.70949 0.868367 2.75288 0.781726 2.83971L0.130348 3.49109C0.0435709 3.57796 -2.89047e-07 3.67783 -2.84125e-07 3.79043C-2.79189e-07 3.90335 0.0435709 4.00322 0.130348 4.09004L6.20034 10.1603C6.28716 10.2472 6.38708 10.2905 6.49996 10.2905C6.61288 10.2905 6.71275 10.2472 6.79957 10.1603L12.8696 4.09036C12.9565 4.0034 12.9999 3.90344 12.9999 3.79057C12.9999 3.67783 12.9565 3.57796 12.8696 3.49113L12.2186 2.83975C12.1318 2.75297 12.0319 2.70968 11.9189 2.70968C11.8061 2.70968 11.7062 2.75293 11.6194 2.83975L6.5 7.95904Z" fill="#014172"/>
</g>
<defs>
<clipPath id="clip0">
<rect width="13" height="13" fill="white" transform="translate(0 13) rotate(-90)"/>
</clipPath>
</defs>
</svg>
