<svg width="63" height="63" viewBox="0 0 63 63" fill="none" xmlns="http://www.w3.org/2000/svg">
<path d="M31.5 0C14.1314 0 0 14.1304 0 31.5C0 48.8696 14.1314 63 31.5 63C48.8686 63 63 48.8696 63 31.5C63 14.1304 48.8686 0 31.5 0ZM31.5 59.1231C16.2685 59.1231 3.87692 46.7315 3.87692 31.5C3.87692 16.2685 16.2685 3.87692 31.5 3.87692C46.7315 3.87692 59.1231 16.2685 59.1231 31.5C59.1231 46.7315 46.7315 59.1231 31.5 59.1231Z" fill="#F2C94C"/>
<path d="M32.0021 22.1818C33.7926 22.1818 35.2442 20.7303 35.2442 18.9397C35.2442 17.1492 33.7926 15.6977 32.0021 15.6977C30.2115 15.6977 28.76 17.1492 28.76 18.9397C28.76 20.7303 30.2115 22.1818 32.0021 22.1818Z" fill="#F2C94C"/>
<path d="M31.1482 27.4699C30.0781 27.4699 29.2097 28.3384 29.2097 29.4084V45.8853C29.2097 46.9554 30.0781 47.8238 31.1482 47.8238C32.2182 47.8238 33.0866 46.9554 33.0866 45.8853V29.4084C33.0866 28.3374 32.2182 27.4699 31.1482 27.4699Z" fill="#F2C94C"/>
</svg>
