<svg width="13" height="13" viewBox="0 0 13 13" fill="none" xmlns="http://www.w3.org/2000/svg">
<path d="M12.887 12.337L9.72781 9.17783C10.5753 8.20355 11.0883 6.93237 11.0883 5.54302C11.0883 2.4847 8.60076 0 5.54534 0C2.48702 0 0.00232697 2.48758 0.00232697 5.54302C0.00232697 8.59845 2.48991 11.086 5.54534 11.086C6.93469 11.086 8.20586 10.5729 9.18014 9.7255L12.3393 12.8847C12.4143 12.9596 12.5152 13 12.6132 13C12.7112 13 12.8121 12.9625 12.887 12.8847C13.0369 12.7348 13.0369 12.4869 12.887 12.337ZM0.777714 5.54302C0.777714 2.91419 2.91651 0.778271 5.54245 0.778271C8.17127 0.778271 10.3072 2.91707 10.3072 5.54302C10.3072 8.16896 8.17127 10.3106 5.54245 10.3106C2.91651 10.3106 0.777714 8.17184 0.777714 5.54302Z" fill="white"/>
</svg>
